<svg width="273" height="59" viewBox="0 0 273 59" fill="none" xmlns="http://www.w3.org/2000/svg">
  <path fill-rule="evenodd" clip-rule="evenodd" d="M31.0352 57.9659C30.464 58.537 29.5381 58.537 28.967 57.9659L27.0762 56.0751H32.9259L31.0352 57.9659Z" fill="#1CEBCF" />
  <path fill-rule="evenodd" clip-rule="evenodd" d="M37.3134 51.6878H22.689L19.7642 48.7629H40.2383L37.3134 51.6878Z" fill="#1CEBCF" />
  <path fill-rule="evenodd" clip-rule="evenodd" d="M44.6256 44.3756H15.3768L12.4519 41.4507H47.5505L44.6256 44.3756Z" fill="#1CEBCF" />
  <path fill-rule="evenodd" clip-rule="evenodd"
    d="M1.82701 30.8406L8.06675 37.0611H51.9399L58.1468 30.8724C58.756 30.2632 58.756 29.2392 58.1468 28.63L31.0758 1.42857C30.4666 0.819381 29.5401 0.819382 28.9309 1.42857L1.82701 28.6787C1.21782 29.2879 1.21782 30.2314 1.82701 30.8406ZM28.5386 6.05933L6.30311 28.2948H28.5386V6.05933ZM31.4635 6.02073V28.2948H53.7376L31.4635 6.02073Z"
    fill="#1CEBCF" />
  <path
    d="M82.6514 21.0406H91.8737C93.0003 21.0406 93.9796 21.1624 94.8116 21.4059C95.651 21.6421 96.3469 21.9705 96.8991 22.3911C97.4513 22.8118 97.86 23.3136 98.1251 23.8966C98.3975 24.4722 98.5337 25.0957 98.5337 25.7673C98.5337 26.8669 98.1877 27.8299 97.4955 28.6564C98.2907 29.1287 98.8835 29.7412 99.2737 30.4939C99.664 31.2466 99.8591 32.1027 99.8591 33.062C99.8591 33.8664 99.7229 34.5933 99.4504 35.2427C99.1854 35.8921 98.7767 36.4493 98.2245 36.9142C97.6796 37.3717 96.9875 37.7259 96.1481 37.9769C95.316 38.2204 94.333 38.3421 93.1991 38.3421H82.6514V21.0406ZM93.2212 27.6823C93.5231 27.6823 93.8176 27.6934 94.1048 27.7155C94.5981 27.2432 94.8448 26.7045 94.8448 26.0994C94.8448 25.4721 94.5981 24.9887 94.1048 24.6493C93.6188 24.3024 92.9046 24.129 91.9621 24.129H86.1526V27.6823H93.2212ZM93.2875 35.287C94.23 35.287 94.9442 35.084 95.4302 34.6782C95.9235 34.2723 96.1702 33.7004 96.1702 32.9624C96.1702 32.2244 95.9235 31.6488 95.4302 31.2356C94.9442 30.8223 94.23 30.6157 93.2875 30.6157H86.1526V35.287H93.2875Z"
    fill="#1CEBCF" />
  <path d="M109.526 21.0406H113.237L121.587 38.3421H117.909L116.528 35.4309H106.444L105.108 38.3421H101.419L109.526 21.0406ZM115.148 32.5418L111.414 24.6825L107.781 32.5418H115.148Z" fill="#1CEBCF" />
  <path
    d="M124.414 21.0406H133.195C134.52 21.0406 135.669 21.1809 136.641 21.4613C137.613 21.7343 138.419 22.1328 139.06 22.6568C139.7 23.1807 140.175 23.8191 140.484 24.5718C140.801 25.3245 140.959 26.1769 140.959 27.1288C140.959 27.7709 140.882 28.3834 140.727 28.9664C140.573 29.542 140.333 30.0733 140.01 30.5603C139.693 31.0474 139.292 31.4828 138.806 31.8665C138.32 32.2429 137.749 32.5565 137.094 32.8074L140.849 38.3421H136.564L133.316 33.4273H133.217L127.915 33.4163V38.3421H124.414V21.0406ZM133.283 30.3832C133.946 30.3832 134.524 30.3057 135.017 30.1508C135.518 29.9958 135.934 29.7781 136.265 29.4977C136.604 29.2173 136.854 28.8778 137.016 28.4793C137.186 28.0734 137.27 27.6233 137.27 27.1288C137.27 26.1621 136.939 25.4168 136.276 24.8928C135.614 24.3615 134.616 24.0958 133.283 24.0958H127.915V30.3832H133.283Z"
    fill="#1CEBCF" />
  <path
    d="M143.592 29.5862C143.592 28.3538 143.824 27.2063 144.288 26.1436C144.751 25.0736 145.422 24.1475 146.298 23.3652C147.181 22.5756 148.256 21.9557 149.523 21.5056C150.797 21.0554 152.236 20.8303 153.841 20.8303C155.248 20.8303 156.536 20.9742 157.707 21.262C158.885 21.5425 159.979 21.9742 160.987 22.5572L159.375 25.2138C159.073 25.0146 158.723 24.8375 158.326 24.6825C157.935 24.5275 157.516 24.3984 157.066 24.295C156.625 24.1844 156.164 24.0995 155.686 24.0405C155.215 23.9814 154.747 23.9519 154.283 23.9519C153.164 23.9519 152.166 24.0921 151.29 24.3725C150.414 24.6456 149.674 25.033 149.07 25.5348C148.474 26.0293 148.017 26.6233 147.7 27.317C147.391 28.0033 147.237 28.7597 147.237 29.5862C147.237 30.4423 147.399 31.2282 147.723 31.944C148.047 32.6598 148.514 33.2797 149.125 33.8037C149.744 34.3202 150.495 34.7261 151.378 35.0213C152.269 35.3091 153.274 35.453 154.394 35.453C154.902 35.453 155.406 35.4161 155.907 35.3423C156.407 35.2685 156.89 35.1689 157.354 35.0435C157.825 34.9106 158.278 34.7556 158.712 34.5785C159.147 34.394 159.551 34.1948 159.927 33.9808L161.54 36.6374C160.597 37.2426 159.507 37.7186 158.27 38.0654C157.033 38.4049 155.719 38.5746 154.327 38.5746C152.553 38.5746 150.995 38.3458 149.655 37.8883C148.315 37.4234 147.196 36.7887 146.298 35.9844C145.399 35.1726 144.722 34.2206 144.266 33.1284C143.816 32.0289 143.592 30.8481 143.592 29.5862Z"
    fill="#1CEBCF" />
  <path d="M171.694 21.0406H175.405L183.755 38.3421H180.077L178.696 35.4309H168.612L167.276 38.3421H163.587L171.694 21.0406ZM177.316 32.5418L173.582 24.6825L169.949 32.5418H177.316Z" fill="#1CEBCF" />
  <rect x="191.755" y="17.1167" width="1.13478" height="25.1714" rx="0.567388" fill="white" />
  <path
    d="M206.432 36.8829C205.794 36.8829 205.192 36.7927 204.626 36.6121C204.061 36.4316 203.543 36.1608 203.074 35.7997C202.604 35.4387 202.189 34.9934 201.828 34.4638L202.803 33.3806C203.369 34.187 203.946 34.7526 204.536 35.0776C205.138 35.4026 205.812 35.565 206.558 35.565C207.1 35.565 207.593 35.4748 208.038 35.2942C208.484 35.1137 208.833 34.861 209.086 34.536C209.338 34.211 209.465 33.8379 209.465 33.4167C209.465 33.1399 209.417 32.8932 209.32 32.6765C209.236 32.4599 209.104 32.2673 208.923 32.0988C208.743 31.9303 208.52 31.7799 208.255 31.6475C207.99 31.5151 207.683 31.3947 207.334 31.2864C206.997 31.1781 206.618 31.0698 206.197 30.9615C205.583 30.817 205.042 30.6485 204.572 30.456C204.115 30.2514 203.724 30.0046 203.399 29.7158C203.086 29.4269 202.845 29.096 202.677 28.7229C202.52 28.3377 202.442 27.8864 202.442 27.3689C202.442 26.8754 202.544 26.4181 202.749 25.9968C202.966 25.5756 203.26 25.2145 203.633 24.9136C204.007 24.6007 204.446 24.36 204.951 24.1915C205.457 24.023 205.998 23.9387 206.576 23.9387C207.226 23.9387 207.804 24.029 208.309 24.2095C208.827 24.378 209.284 24.6308 209.681 24.9678C210.079 25.3048 210.422 25.708 210.71 26.1774L209.717 27.1522C209.465 26.7551 209.176 26.412 208.851 26.1232C208.538 25.8343 208.189 25.6177 207.804 25.4733C207.431 25.3168 207.015 25.2386 206.558 25.2386C206.029 25.2386 205.559 25.3288 205.15 25.5094C204.753 25.6899 204.44 25.9427 204.211 26.2676C203.983 26.5805 203.868 26.9416 203.868 27.3508C203.868 27.6517 203.922 27.9225 204.031 28.1632C204.139 28.3919 204.307 28.5965 204.536 28.777C204.777 28.9455 205.084 29.102 205.457 29.2464C205.842 29.3788 206.299 29.5052 206.829 29.6255C207.455 29.7699 208.014 29.9445 208.508 30.1491C209.013 30.3537 209.441 30.6004 209.79 30.8892C210.151 31.1661 210.422 31.491 210.602 31.8641C210.795 32.2372 210.891 32.6645 210.891 33.1459C210.891 33.8921 210.704 34.548 210.331 35.1137C209.958 35.6673 209.435 36.1006 208.761 36.4135C208.099 36.7265 207.322 36.8829 206.432 36.8829ZM213.931 36.7024V24.0651H218.932C219.594 24.0651 220.189 24.2276 220.719 24.5526C221.249 24.8775 221.67 25.3288 221.983 25.9066C222.296 26.4722 222.452 27.1101 222.452 27.8202C222.452 28.5664 222.296 29.2344 221.983 29.8241C221.67 30.4018 221.249 30.8652 220.719 31.2142C220.189 31.5512 219.594 31.7197 218.932 31.7197H215.339V36.7024H213.931ZM215.339 30.3477H219.004C219.377 30.3477 219.708 30.2393 219.997 30.0227C220.298 29.794 220.539 29.4931 220.719 29.12C220.9 28.7349 220.99 28.2956 220.99 27.8021C220.99 27.3568 220.9 26.9597 220.719 26.6106C220.539 26.2496 220.298 25.9667 219.997 25.7621C219.708 25.5455 219.377 25.4372 219.004 25.4372H215.339V30.3477ZM230.577 36.8829C229.687 36.8829 228.862 36.7265 228.104 36.4135C227.358 36.0886 226.702 35.6373 226.136 35.0595C225.583 34.4818 225.149 33.8018 224.836 33.0195C224.536 32.2252 224.385 31.3586 224.385 30.4199C224.385 29.4811 224.536 28.6206 224.836 27.8382C225.149 27.0439 225.583 26.3579 226.136 25.7802C226.702 25.1904 227.358 24.7391 228.104 24.4262C228.862 24.1012 229.687 23.9387 230.577 23.9387C231.48 23.9387 232.304 24.1012 233.051 24.4262C233.809 24.7391 234.465 25.1904 235.018 25.7802C235.584 26.3579 236.017 27.0439 236.318 27.8382C236.631 28.6206 236.788 29.4811 236.788 30.4199C236.788 31.3466 236.631 32.2071 236.318 33.0015C236.017 33.7838 235.584 34.4698 235.018 35.0595C234.465 35.6373 233.809 36.0886 233.051 36.4135C232.304 36.7265 231.48 36.8829 230.577 36.8829ZM230.577 35.4928C231.263 35.4928 231.895 35.3725 232.473 35.1318C233.063 34.879 233.568 34.524 233.989 34.0666C234.411 33.6093 234.736 33.0737 234.964 32.4599C235.205 31.834 235.325 31.154 235.325 30.4199C235.325 29.6737 235.205 28.9937 234.964 28.3798C234.736 27.754 234.411 27.2124 233.989 26.7551C233.568 26.2977 233.063 25.9427 232.473 25.6899C231.895 25.4372 231.263 25.3108 230.577 25.3108C229.891 25.3108 229.253 25.4372 228.664 25.6899C228.086 25.9427 227.587 26.2977 227.165 26.7551C226.744 27.2124 226.419 27.754 226.19 28.3798C225.962 28.9937 225.847 29.6737 225.847 30.4199C225.847 31.154 225.962 31.834 226.19 32.4599C226.419 33.0737 226.744 33.6093 227.165 34.0666C227.587 34.524 228.086 34.879 228.664 35.1318C229.253 35.3725 229.891 35.4928 230.577 35.4928ZM239.733 36.7024V24.0651H244.68C245.414 24.0651 246.076 24.2396 246.666 24.5887C247.267 24.9257 247.743 25.389 248.092 25.9788C248.441 26.5685 248.615 27.2365 248.615 27.9827C248.615 28.6807 248.447 29.3126 248.11 29.8783C247.773 30.4439 247.316 30.8953 246.738 31.2323C246.16 31.5572 245.51 31.7197 244.788 31.7197H241.141V36.7024H239.733ZM247.442 36.7024L244.265 31.142L245.619 30.6726L249.121 36.7024H247.442ZM241.141 30.3477H244.914C245.36 30.3477 245.751 30.2453 246.088 30.0407C246.425 29.8361 246.69 29.5593 246.882 29.2103C247.075 28.8492 247.171 28.44 247.171 27.9827C247.171 27.4892 247.057 27.0499 246.828 26.6648C246.599 26.2797 246.281 25.9788 245.871 25.7621C245.474 25.5455 245.017 25.4372 244.499 25.4372H241.141V30.3477ZM253.79 36.7024V25.4372H250.179V24.0651H258.953V25.4372H255.198V36.7024H253.79ZM265.216 36.8829C264.578 36.8829 263.977 36.7927 263.411 36.6121C262.845 36.4316 262.328 36.1608 261.858 35.7997C261.389 35.4387 260.974 34.9934 260.613 34.4638L261.588 33.3806C262.153 34.187 262.731 34.7526 263.321 35.0776C263.922 35.4026 264.596 35.565 265.343 35.565C265.884 35.565 266.378 35.4748 266.823 35.2942C267.268 35.1137 267.617 34.861 267.87 34.536C268.123 34.211 268.249 33.8379 268.249 33.4167C268.249 33.1399 268.201 32.8932 268.105 32.6765C268.02 32.4599 267.888 32.2673 267.708 32.0988C267.527 31.9303 267.304 31.7799 267.04 31.6475C266.775 31.5151 266.468 31.3947 266.119 31.2864C265.782 31.1781 265.403 31.0698 264.982 30.9615C264.368 30.817 263.826 30.6485 263.357 30.456C262.899 30.2514 262.508 30.0046 262.183 29.7158C261.87 29.4269 261.63 29.096 261.461 28.7229C261.305 28.3377 261.226 27.8864 261.226 27.3689C261.226 26.8754 261.329 26.4181 261.533 25.9968C261.75 25.5756 262.045 25.2145 262.418 24.9136C262.791 24.6007 263.23 24.36 263.736 24.1915C264.241 24.023 264.783 23.9387 265.361 23.9387C266.011 23.9387 266.588 24.029 267.094 24.2095C267.611 24.378 268.069 24.6308 268.466 24.9678C268.863 25.3048 269.206 25.708 269.495 26.1774L268.502 27.1522C268.249 26.7551 267.96 26.412 267.635 26.1232C267.322 25.8343 266.973 25.6177 266.588 25.4733C266.215 25.3168 265.8 25.2386 265.343 25.2386C264.813 25.2386 264.344 25.3288 263.934 25.5094C263.537 25.6899 263.224 25.9427 262.996 26.2676C262.767 26.5805 262.653 26.9416 262.653 27.3508C262.653 27.6517 262.707 27.9225 262.815 28.1632C262.923 28.3919 263.092 28.5965 263.321 28.777C263.561 28.9455 263.868 29.102 264.241 29.2464C264.626 29.3788 265.084 29.5052 265.613 29.6255C266.239 29.7699 266.799 29.9445 267.292 30.1491C267.798 30.3537 268.225 30.6004 268.574 30.8892C268.935 31.1661 269.206 31.491 269.387 31.8641C269.579 32.2372 269.675 32.6645 269.675 33.1459C269.675 33.8921 269.489 34.548 269.116 35.1137C268.743 35.6673 268.219 36.1006 267.545 36.4135C266.883 36.7265 266.107 36.8829 265.216 36.8829Z"
    fill="white" />
</svg>
